# xmcd CD database file
#
# Track frame offsets:
#	150
#	19138
#	41870
#	56435
#	74122
#	93066
#
# Disc length: 1429 seconds
#
# Revision: 0
# Processed by: cddbd v1.5.2PL0 Copyright (c) Steve Scherf et al.
# Submitted via: CDex 2.13
#
DISCID=4e059306
DTITLE=Brunt, Isaiah B - EP
DYEAR=2010
DGENRE=Blues
TTITLE0=Pathway Home
TTITLE1=Shadowy Place
TTITLE2=Ain't No Rolling Stone
TTITLE3=Whispers In My Head
TTITLE4=Great Ocean Blues
TTITLE5=Where Is Your Man?
EXTD=YEAR: 2010
EXTT0=
EXTT1=
EXTT2=
EXTT3=
EXTT4=
EXTT5=
PLAYORDER=
